REM DIRINDEX 1\2,1\3,1\4,1\5,1\6,1\7,1\8
REM DIRNAME cjc150,folder01,folder02,folder03,folder04,folder05,folder06,folder07
TITLE ""
FILE "010 ‚Å‚é•¶30.mp3" MP3
  TRACK 01 AUDIO
    TITLE "8:cjc150_1364"
    INDEX 01 00:00:00
  TRACK 02 AUDIO
    TITLE "0:"
    INDEX 01 00:01:50
  TRACK 03 AUDIO
    TITLE "2:cjc150_1365"
    INDEX 01 00:02:42
  TRACK 04 AUDIO
    TITLE "0:"
    INDEX 01 00:07:52
  TRACK 05 AUDIO
    TITLE "8:cjc150_1366"
    INDEX 01 00:09:06
  TRACK 06 AUDIO
    TITLE "0:"
    INDEX 01 00:11:60
  TRACK 07 AUDIO
    TITLE "3:cjc150_1367"
    INDEX 01 00:12:60
  TRACK 08 AUDIO
    TITLE "3:cjc150_1368"
    INDEX 01 00:14:49
  TRACK 09 AUDIO
    TITLE "3:cjc150_1369"
    INDEX 01 00:16:38
  TRACK 10 AUDIO
    TITLE "3:cjc150_1370"
    INDEX 01 00:18:62
  TRACK 11 AUDIO
    TITLE "3:cjc150_1371"
    INDEX 01 00:20:71
  TRACK 12 AUDIO
    TITLE "3:cjc150_1372"
    INDEX 01 00:22:48
  TRACK 13 AUDIO
    TITLE "3:cjc150_1373"
    INDEX 01 00:24:04
  TRACK 14 AUDIO
    TITLE "3:cjc150_1374"
    INDEX 01 00:25:45
  TRACK 15 AUDIO
    TITLE "8:cjc150_1375"
    INDEX 01 00:26:71
  TRACK 16 AUDIO
    TITLE "0:"
    INDEX 01 00:29:50
  TRACK 17 AUDIO
    TITLE "4:cjc150_1376"
    INDEX 01 00:30:20
  TRACK 18 AUDIO
    TITLE "4:cjc150_1377"
    INDEX 01 00:32:17
  TRACK 19 AUDIO
    TITLE "4:cjc150_1378"
    INDEX 01 00:34:42
  TRACK 20 AUDIO
    TITLE "4:cjc150_1379"
    INDEX 01 00:37:67
  TRACK 21 AUDIO
    TITLE "4:cjc150_1380"
    INDEX 01 00:41:51
  TRACK 22 AUDIO
    TITLE "4:cjc150_1381"
    INDEX 01 00:43:11
  TRACK 23 AUDIO
    TITLE "8:cjc150_1382"
    INDEX 01 00:45:02
  TRACK 24 AUDIO
    TITLE "0:"
    INDEX 01 00:47:72
  TRACK 25 AUDIO
    TITLE "5:cjc150_1383"
    INDEX 01 00:48:48
  TRACK 26 AUDIO
    TITLE "5:cjc150_1384"
    INDEX 01 00:52:02
  TRACK 27 AUDIO
    TITLE "5:cjc150_1385"
    INDEX 01 00:54:48
  TRACK 28 AUDIO
    TITLE "5:cjc150_1386"
    INDEX 01 00:56:41
  TRACK 29 AUDIO
    TITLE "5:cjc150_1387"
    INDEX 01 00:58:24
  TRACK 30 AUDIO
    TITLE "5:cjc150_1388"
    INDEX 01 01:00:33
  TRACK 31 AUDIO
    TITLE "5:cjc150_1389"
    INDEX 01 01:03:37
  TRACK 32 AUDIO
    TITLE "5:cjc150_1390"
    INDEX 01 01:05:62
  TRACK 33 AUDIO
    TITLE "5:cjc150_1391"
    INDEX 01 01:07:72
  TRACK 34 AUDIO
    TITLE "5:cjc150_1392"
    INDEX 01 01:09:73
  TRACK 35 AUDIO
    TITLE "5:cjc150_1393"
    INDEX 01 01:12:21
  TRACK 36 AUDIO
    TITLE "5:cjc150_1394"
    INDEX 01 01:14:00
  TRACK 37 AUDIO
    TITLE "5:cjc150_1395"
    INDEX 01 01:15:35
  TRACK 38 AUDIO
    TITLE "5:cjc150_1396"
    INDEX 01 01:16:71
  TRACK 39 AUDIO
    TITLE "5:cjc150_1397"
    INDEX 01 01:19:05
  TRACK 40 AUDIO
    TITLE "5:cjc150_1398"
    INDEX 01 01:20:44
  TRACK 41 AUDIO
    TITLE "8:cjc150_1399"
    INDEX 01 01:21:72
  TRACK 42 AUDIO
    TITLE "0:"
    INDEX 01 01:24:51
  TRACK 43 AUDIO
    TITLE "6:cjc150_1400"
    INDEX 01 01:25:37
  TRACK 44 AUDIO
    TITLE "6:cjc150_1401"
    INDEX 01 01:28:39
  TRACK 45 AUDIO
    TITLE "6:cjc150_1402"
    INDEX 01 01:31:06
  TRACK 46 AUDIO
    TITLE "6:cjc150_1403"
    INDEX 01 01:33:03
  TRACK 47 AUDIO
    TITLE "6:cjc150_1404"
    INDEX 01 01:34:59
  TRACK 48 AUDIO
    TITLE "6:cjc150_1405"
    INDEX 01 01:38:18
  TRACK 49 AUDIO
    TITLE "6:cjc150_1406"
    INDEX 01 01:42:22
  TRACK 50 AUDIO
    TITLE "6:cjc150_1407"
    INDEX 01 01:45:47
  TRACK 51 AUDIO
    TITLE "6:cjc150_1408"
    INDEX 01 01:48:63
  TRACK 52 AUDIO
    TITLE "6:cjc150_1409"
    INDEX 01 01:50:25
  TRACK 53 AUDIO
    TITLE "6:cjc150_1410"
    INDEX 01 01:52:44
  TRACK 54 AUDIO
    TITLE "6:cjc150_1411"
    INDEX 01 01:54:01
  TRACK 55 AUDIO
    TITLE "8:cjc150_1412"
    INDEX 01 01:54:68
  TRACK 56 AUDIO
    TITLE "0:"
    INDEX 01 01:56:47
  TRACK 57 AUDIO
    TITLE "7:cjc150_1413"
    INDEX 01 01:57:35
  TRACK 58 AUDIO
    TITLE "7:cjc150_1414"
    INDEX 01 02:02:46
  TRACK 59 AUDIO
    TITLE "0:"
    INDEX 01 02:07:22
